<?xml version="1.0" standalone="no"?>
<!DOCTYPE svg PUBLIC "-//W3C//DTD SVG 20010904//EN"
 "http://www.w3.org/TR/2001/REC-SVG-20010904/DTD/svg10.dtd">
<svg version="1.0" xmlns="http://www.w3.org/2000/svg"
 width="700.000000pt" height="700.000000pt" viewBox="0 0 700.000000 700.000000"
 preserveAspectRatio="xMidYMid meet">
<metadata>
Created by potrace 1.14, written by Peter Selinger 2001-2017
</metadata>
<g transform="translate(0.000000,700.000000) scale(0.100000,-0.100000)"
fill="#000000" stroke="none">
<path d="M1419 6996 c-2 -2 -24 -7 -49 -11 -57 -8 -149 -39 -214 -72 -57 -28
-180 -119 -211 -155 -118 -138 -171 -238 -212 -403 -4 -16 -8 -1290 -10 -2830
-2 -2996 -4 -2855 46 -2997 76 -218 251 -395 473 -478 138 -51 49 -49 2268
-49 2178 0 2104 -1 2235 44 240 83 446 303 504 540 7 28 16 59 19 70 4 11 7
1280 9 2820 2 3011 4 2864 -47 3004 -94 250 -319 447 -576 501 -85 18 -178 19
-2160 19 -1139 1 -2073 -1 -2075 -3z m1193 -1040 c218 -24 444 -171 561 -363
41 -68 93 -192 101 -243 3 -19 8 -46 11 -60 9 -44 7 -173 -4 -240 -20 -121
-74 -246 -150 -347 l-39 -51 96 -4 c80 -3 107 -8 156 -31 72 -33 130 -92 165
-166 l26 -56 0 -365 c0 -341 -1 -369 -20 -410 -27 -62 -61 -106 -114 -146 -86
-66 -69 -65 -903 -66 l-753 0 -60 23 c-82 31 -163 112 -194 194 -21 57 -22 72
-22 402 -1 188 2 352 6 365 29 99 93 177 180 222 61 31 78 34 183 35 l83 1
-41 55 c-56 76 -105 175 -130 265 -28 95 -34 267 -13 360 8 36 16 74 18 85 9
41 86 188 122 233 184 234 438 340 735 308z m2706 -1909 c139 -52 220 -178
210 -324 -9 -122 -77 -217 -193 -269 l-60 -26 -540 -2 c-297 0 -566 2 -599 7
-123 15 -230 106 -261 222 -46 169 38 336 195 389 65 21 56 21 655 20 480 -1
555 -3 593 -17z m-10 -1192 c145 -51 229 -173 220 -320 -9 -143 -85 -242 -222
-288 -45 -15 -196 -17 -1806 -17 -1937 0 -1800 -4 -1896 61 -179 121 -178 396
1 519 91 63 -41 58 1890 59 1542 1 1776 -1 1813 -14z m-3 -1195 c96 -32 170
-102 208 -196 25 -64 18 -186 -13 -248 -26 -51 -90 -119 -131 -139 -85 -42
-16 -41 -1844 -42 -957 0 -1762 3 -1788 7 -99 15 -193 84 -239 176 -33 69 -33
207 1 274 46 90 126 152 220 171 89 18 3531 15 3586 -3z"/>
</g>
</svg>
